<?xml version="1.0" encoding="UTF-8"?>
<!DOCTYPE svg PUBLIC "-//W3C//DTD SVG 1.1//EN" "http://www.w3.org/Graphics/SVG/1.1/DTD/svg11.dtd">
<!-- Creator: CorelDRAW X7 -->
<svg xmlns="http://www.w3.org/2000/svg" xml:space="preserve" width="4.91412in" height="1.01316in" version="1.1" style="shape-rendering:geometricPrecision; text-rendering:geometricPrecision; image-rendering:optimizeQuality; fill-rule:evenodd; clip-rule:evenodd"
viewBox="0 0 4633 955"
 xmlns:xlink="http://www.w3.org/1999/xlink">
 <defs>
  <style type="text/css">
   <![CDATA[
    .fil0 {fill:white}
   ]]>
  </style>
 </defs>
 <g id="Layer_x0020_1">
  <metadata id="CorelCorpID_0Corel-Layer"/>
  <path class="fil0" d="M1 663c0,137 -18,200 125,227 44,9 183,18 233,18 25,0 37,3 60,3l185 3c165,0 332,7 497,7 45,0 78,3 122,3 42,0 85,-2 126,0l123 3c21,0 42,0 62,0 24,0 35,3 60,3 87,0 167,3 252,3 166,0 328,7 496,7 43,0 78,3 123,3 42,0 84,0 125,0 23,0 35,3 60,3l189 0c20,0 35,3 59,3l189 0c42,0 78,3 123,3l628 3 8 0c172,0 339,0 508,-9 65,-4 203,-16 249,-59 19,-19 30,-44 30,-73 0,-134 -3,-257 -3,-390 0,-36 -3,-61 -3,-94 0,-33 0,-65 0,-98 0,-34 -3,-162 -9,-188 -12,3 -12,9 -17,21 -31,66 -55,123 -100,183 -49,65 -125,107 -213,107 -122,0 -205,-23 -304,-70 -11,-5 -18,-7 -29,-13l-304 -157c-120,-60 -252,-112 -397,-112 -237,0 -444,112 -607,233 -46,34 -96,82 -137,114 -8,6 -15,12 -22,18l-71 59c-56,44 -109,84 -170,122 -71,45 -110,67 -189,107l-58 27c-21,9 -37,17 -59,25 -180,72 -360,128 -567,128 -88,0 -158,-13 -230,-28 -106,-22 -207,-68 -302,-119 -68,-36 -178,-112 -231,-162l-174 -180c-66,-79 -110,-142 -171,-223 -94,-125 -171,-200 -214,-3 -21,96 -26,163 -36,259 -3,27 -4,66 -8,92 -2,15 0,30 -2,46l-5 145z"/>
 </g>
</svg>
